<svg width="50" height="6" viewBox="0 0 50 6" fill="none" xmlns="http://www.w3.org/2000/svg">
<path opacity="0.5" d="M13.9916 5.49554e-05C15.6475 5.49554e-05 16.9847 1.34319 16.9784 3.00003C16.9721 4.65687 15.6246 6 13.9686 6C12.3127 6 10.9755 4.65687 10.9818 3.00003C10.9882 1.34319 12.3357 5.49554e-05 13.9916 5.49554e-05Z" fill="white"/>
<path opacity="0.5" d="M24.9908 -1.1942e-07C26.6467 -1.1942e-07 27.981 1.34312 27.9709 2.99994C27.9609 4.65676 26.6104 5.99988 24.9544 5.99988C23.2985 5.99988 21.9643 4.65676 21.9743 2.99994C21.9844 1.34312 23.3349 -1.1942e-07 24.9908 -1.1942e-07Z" fill="white"/>
<path opacity="0.5" d="M47.0016 3.57408e-07C48.6576 3.57408e-07 49.9918 1.34312 49.9818 2.99994C49.9718 4.65676 48.6212 5.99988 46.9653 5.99988C45.3094 5.99988 43.9752 4.65676 43.9852 2.99994C43.9952 1.34312 45.3457 3.57408e-07 47.0016 3.57408e-07Z" fill="white"/>
<path opacity="0.5" d="M36.0002 3.57408e-07C37.6561 3.57408e-07 38.9904 1.34312 38.9803 2.99994C38.9703 4.65676 37.6198 5.99988 35.9638 5.99988C34.3079 5.99988 32.9737 4.65676 32.9837 2.99994C32.9938 1.34312 34.3443 3.57408e-07 36.0002 3.57408e-07Z" fill="white"/>
<path d="M2.99831 1.04904e-05C4.65422 1.04904e-05 5.99658 1.34315 5.99658 3.00001C5.99658 4.65686 4.65422 6 2.99831 6C1.34239 6 0 4.65686 0 3.00001C0 1.34315 1.34239 1.04904e-05 2.99831 1.04904e-05Z" fill="white"/>
</svg>
