<svg width="32" height="32" viewBox="0 0 32 32" fill="none" xmlns="http://www.w3.org/2000/svg">
<path d="M16.0004 8.83001C17.117 7.67987 18.6718 7.02099 20.3436 7.02081L16.0004 8.83001ZM16.0004 8.83001C14.8836 7.67943 13.3288 7.02081 11.6564 7.02081C8.37573 7.02081 5.6875 9.59788 5.6875 12.7899C5.6875 15.6732 7.45794 18.2713 9.53821 20.3362C11.6263 22.4088 14.0778 23.9952 15.5468 24.8564C15.687 24.9388 15.8439 24.9791 16 24.9791C16.156 24.9791 16.3128 24.9388 16.4529 24.8566L16.0004 8.83001ZM22.4619 20.3364C20.3739 22.4091 17.9224 23.9953 16.4532 24.8564L22.4619 20.3364ZM22.4619 20.3364C24.5422 18.2715 26.3125 15.6733 26.3125 12.7899M22.4619 20.3364L26.3125 12.7899M26.3125 12.7899C26.3125 9.59845 23.625 7.02116 20.3443 7.02081L26.3125 12.7899ZM21.8694 18.4436L22.1011 18.6533L21.8694 18.4436C20.4124 20.0532 18.3919 21.6617 16.0003 23.1109C13.6088 21.6617 11.5885 20.0532 10.1312 18.4435C8.32574 16.4494 7.44873 14.5482 7.44873 12.7899C7.44873 10.5686 9.32581 8.74191 11.6564 8.74191C13.1398 8.74191 14.4813 9.47103 15.2519 10.6864L15.2519 10.6864C15.4143 10.9423 15.6989 11.0938 16.0003 11.0938C16.3014 11.0938 16.5866 10.9427 16.7488 10.6863C17.5191 9.47105 18.8608 8.74191 20.3443 8.74191C22.6749 8.74191 24.5519 10.5686 24.5519 12.7899C24.5519 14.5482 23.6746 16.4493 21.8694 18.4436ZM15.5158 10.519C15.6191 10.6819 15.8027 10.7813 16.0003 10.7813C16.198 10.7813 16.3819 10.6819 16.4849 10.519H15.5158Z" fill="#AFB9CA" stroke="#AFB9CA" stroke-width="0.625"/>
</svg>
